<svg xmlns="http://www.w3.org/2000/svg" width="32" height="23" fill="none">
    <path fill="#4D5AE5"
        d="M6.436 5.238h2.718l1.332 4.086 1.332-4.086h2.736l-2.178 5.94 1.296 3.402 3.204-9.36h3.222L15.112 18h-2.556l-2.07-5.004L8.434 18H5.86L.892 5.22h3.204l3.222 9.36 1.26-3.402-2.142-5.94Z" />
    <path fill="#4D5AE5"
        d="M29.892 8.964c-.036-.06-.162-.15-.378-.27a7.842 7.842 0 0 0-1.872-.792 4.238 4.238 0 0 0-1.152-.162c-.504 0-.894.09-1.17.27-.276.168-.414.432-.414.792 0 .288.102.516.306.684.216.168.522.318.918.45.396.12.882.264 1.458.432.816.216 1.524.48 2.124.792.6.3 1.056.69 1.368 1.17.324.48.486 1.116.486 1.908 0 .72-.132 1.332-.396 1.836a3.37 3.37 0 0 1-1.08 1.206c-.444.3-.954.522-1.53.666a7.952 7.952 0 0 1-1.782.198c-.624 0-1.266-.06-1.926-.18a12.008 12.008 0 0 1-1.872-.54 9 9 0 0 1-1.656-.864l1.296-2.574c.048.06.204.174.468.342.264.156.588.324.972.504.396.168.834.318 1.314.45.48.132.966.198 1.458.198.528 0 .918-.084 1.17-.252.264-.168.396-.402.396-.702a.854.854 0 0 0-.414-.756c-.264-.18-.63-.342-1.098-.486-.456-.144-.984-.306-1.584-.486-.78-.24-1.428-.51-1.944-.81-.504-.3-.882-.666-1.134-1.098-.24-.432-.36-.972-.36-1.62 0-.9.21-1.656.63-2.268a3.979 3.979 0 0 1 1.728-1.404 5.68 5.68 0 0 1 2.358-.486c.6 0 1.176.072 1.728.216a9.594 9.594 0 0 1 1.566.54c.492.216.93.432 1.314.648l-1.296 2.448Z" />
</svg>